<svg width="16" height="16" viewBox="0 0 16 16" fill="none" xmlns="http://www.w3.org/2000/svg">
<path d="M1.75 14.5508H14.25" stroke="#737373" stroke-miterlimit="10" stroke-linecap="round" stroke-linejoin="round"/>
<path d="M1.75 14.5508H14.25" stroke="#737373" stroke-miterlimit="10" stroke-linecap="round" stroke-linejoin="round"/>
<path d="M2.34375 14.5516L2.375 7.03279C2.375 6.65154 2.55625 6.28907 2.85625 6.05157L7.23125 2.64531C7.68125 2.29531 8.3125 2.29531 8.76875 2.64531L13.1438 6.04531C13.45 6.28281 13.625 6.64529 13.625 7.03279V14.5516" stroke="#737373" stroke-miterlimit="10" stroke-linejoin="round"/>
<path d="M2.34375 14.5516L2.375 7.03279C2.375 6.65154 2.55625 6.28907 2.85625 6.05157L7.23125 2.64531C7.68125 2.29531 8.3125 2.29531 8.76875 2.64531L13.1438 6.04531C13.45 6.28281 13.625 6.64529 13.625 7.03279V14.5516" stroke="#737373" stroke-miterlimit="10" stroke-linejoin="round"/>
<path d="M8.625 11.4258H7.375C6.85625 11.4258 6.4375 11.8445 6.4375 12.3633V14.5508H9.5625V12.3633C9.5625 11.8445 9.14375 11.4258 8.625 11.4258Z" stroke="#737373" stroke-miterlimit="10" stroke-linejoin="round"/>
<path d="M8.625 11.4258H7.375C6.85625 11.4258 6.4375 11.8445 6.4375 12.3633V14.5508H9.5625V12.3633C9.5625 11.8445 9.14375 11.4258 8.625 11.4258Z" stroke="#737373" stroke-miterlimit="10" stroke-linejoin="round"/>
<path d="M6.4375 9.39453H5.1875C4.84375 9.39453 4.5625 9.11328 4.5625 8.76953V7.83203C4.5625 7.48828 4.84375 7.20703 5.1875 7.20703H6.4375C6.78125 7.20703 7.0625 7.48828 7.0625 7.83203V8.76953C7.0625 9.11328 6.78125 9.39453 6.4375 9.39453Z" stroke="#737373" stroke-miterlimit="10" stroke-linejoin="round"/>
<path d="M6.4375 9.39453H5.1875C4.84375 9.39453 4.5625 9.11328 4.5625 8.76953V7.83203C4.5625 7.48828 4.84375 7.20703 5.1875 7.20703H6.4375C6.78125 7.20703 7.0625 7.48828 7.0625 7.83203V8.76953C7.0625 9.11328 6.78125 9.39453 6.4375 9.39453Z" stroke="#737373" stroke-miterlimit="10" stroke-linejoin="round"/>
<path d="M10.8125 9.39453H9.5625C9.21875 9.39453 8.9375 9.11328 8.9375 8.76953V7.83203C8.9375 7.48828 9.21875 7.20703 9.5625 7.20703H10.8125C11.1563 7.20703 11.4375 7.48828 11.4375 7.83203V8.76953C11.4375 9.11328 11.1563 9.39453 10.8125 9.39453Z" stroke="#737373" stroke-miterlimit="10" stroke-linejoin="round"/>
<path d="M10.8125 9.39453H9.5625C9.21875 9.39453 8.9375 9.11328 8.9375 8.76953V7.83203C8.9375 7.48828 9.21875 7.20703 9.5625 7.20703H10.8125C11.1563 7.20703 11.4375 7.48828 11.4375 7.83203V8.76953C11.4375 9.11328 11.1563 9.39453 10.8125 9.39453Z" stroke="#737373" stroke-miterlimit="10" stroke-linejoin="round"/>
<path d="M12.3742 5.17578L12.3555 3.30078H9.60547" stroke="#737373" stroke-miterlimit="10" stroke-linecap="round" stroke-linejoin="round"/>
<path d="M12.3742 5.17578L12.3555 3.30078H9.60547" stroke="#737373" stroke-miterlimit="10" stroke-linecap="round" stroke-linejoin="round"/>
</svg>
