<svg width="16" height="16" viewBox="0 0 16 16" fill="none" xmlns="http://www.w3.org/2000/svg">
<path d="M14.25 5.52422V2.68672C14.25 1.80547 13.85 1.44922 12.8563 1.44922H10.3312C9.3375 1.44922 8.9375 1.80547 8.9375 2.68672V5.51797C8.9375 6.40547 9.3375 6.75547 10.3312 6.75547H12.8563C13.85 6.76172 14.25 6.40547 14.25 5.52422Z" stroke="#171717" stroke-linecap="round" stroke-linejoin="round"/>
<path d="M14.25 12.5555V10.0305C14.25 9.03672 13.85 8.63672 12.8563 8.63672H10.3312C9.3375 8.63672 8.9375 9.03672 8.9375 10.0305V12.5555C8.9375 13.5492 9.3375 13.9492 10.3312 13.9492H12.8563C13.85 13.9492 14.25 13.5492 14.25 12.5555Z" stroke="#171717" stroke-linecap="round" stroke-linejoin="round"/>
<path d="M7.0625 5.52422V2.68672C7.0625 1.80547 6.6625 1.44922 5.66875 1.44922H3.14375C2.15 1.44922 1.75 1.80547 1.75 2.68672V5.51797C1.75 6.40547 2.15 6.75547 3.14375 6.75547H5.66875C6.6625 6.76172 7.0625 6.40547 7.0625 5.52422Z" stroke="#171717" stroke-linecap="round" stroke-linejoin="round"/>
<path d="M7.0625 12.5555V10.0305C7.0625 9.03672 6.6625 8.63672 5.66875 8.63672H3.14375C2.15 8.63672 1.75 9.03672 1.75 10.0305V12.5555C1.75 13.5492 2.15 13.9492 3.14375 13.9492H5.66875C6.6625 13.9492 7.0625 13.5492 7.0625 12.5555Z" stroke="#171717" stroke-linecap="round" stroke-linejoin="round"/>
</svg>
