<svg width="16" height="16" viewBox="0 0 16 16" fill="none" xmlns="http://www.w3.org/2000/svg">
<path d="M7.6625 9.18047C8.63245 9.18047 9.41875 8.39417 9.41875 7.42422C9.41875 6.45427 8.63245 5.66797 7.6625 5.66797C6.69255 5.66797 5.90625 6.45427 5.90625 7.42422C5.90625 8.39417 6.69255 9.18047 7.6625 9.18047Z" stroke="#171717" stroke-linecap="round" stroke-linejoin="round"/>
<path d="M10.9055 13.2239C10.9055 11.7676 9.45547 10.5801 7.66172 10.5801C5.86797 10.5801 4.41797 11.7614 4.41797 13.2239" stroke="#171717" stroke-linecap="round" stroke-linejoin="round"/>
<path d="M13.625 8.41211C13.625 11.6934 10.9688 14.3496 7.6875 14.3496C4.40625 14.3496 1.75 11.6934 1.75 8.41211C1.75 5.13086 4.40625 2.47461 7.6875 2.47461C8.50625 2.47461 9.2875 2.6371 10 2.9371C9.91875 3.1871 9.875 3.44961 9.875 3.72461C9.875 4.19336 10.0063 4.63711 10.2375 5.01211C10.3625 5.22461 10.525 5.41834 10.7125 5.58084C11.15 5.98084 11.7313 6.22461 12.375 6.22461C12.65 6.22461 12.9125 6.18085 13.1562 6.09335C13.4562 6.80585 13.625 7.59336 13.625 8.41211Z" stroke="#171717" stroke-linecap="round" stroke-linejoin="round"/>
<path d="M14.875 3.72461C14.875 3.92461 14.85 4.11835 14.8 4.30585C14.7437 4.55585 14.6437 4.79961 14.5125 5.01211C14.2125 5.51836 13.7313 5.9121 13.1562 6.09335C12.9125 6.18085 12.65 6.22461 12.375 6.22461C11.7313 6.22461 11.15 5.98084 10.7125 5.58084C10.525 5.41834 10.3625 5.22461 10.2375 5.01211C10.0063 4.63711 9.875 4.19336 9.875 3.72461C9.875 3.44961 9.91875 3.1871 10 2.9371C10.1188 2.5746 10.3188 2.24962 10.5813 1.98087C11.0375 1.51212 11.675 1.22461 12.375 1.22461C13.1125 1.22461 13.7813 1.54337 14.2313 2.05587C14.6313 2.49962 14.875 3.08711 14.875 3.72461Z" stroke="#171717" stroke-miterlimit="10" stroke-linecap="round" stroke-linejoin="round"/>
<path d="M13.3059 3.71094H11.4434" stroke="#171717" stroke-miterlimit="10" stroke-linecap="round" stroke-linejoin="round"/>
<path d="M12.375 2.79883V4.66757" stroke="#171717" stroke-miterlimit="10" stroke-linecap="round" stroke-linejoin="round"/>
</svg>
